<svg xmlns="http://www.w3.org/2000/svg" width="630" height="435" viewBox="0 0 630 435" version="1.1"><path d="M 497.934 6.475 C 495.289 7.914, 478.174 26.870, 455.026 54 C 447.752 62.525, 438.808 72.913, 435.150 77.084 C 428.321 84.873, 416.669 98.609, 413.223 102.934 L 411.284 105.368 404.364 103.184 C 396.702 100.766, 386.052 100.308, 379.500 102.114 C 377.300 102.721, 364.700 108.161, 351.500 114.202 C 338.300 120.244, 317.375 129.686, 305 135.185 C 260.804 154.822, 254.908 159.154, 250.180 175.457 C 248.178 182.360, 236.884 229.132, 235.077 238 C 234.573 240.475, 233.663 248.350, 233.055 255.500 C 231.855 269.614, 230.836 275.744, 227.905 286.480 C 226.857 290.319, 226 295.208, 226 297.344 C 226 302.296, 229.478 308.514, 233.712 311.131 C 235.520 312.249, 237 313.483, 237 313.874 C 237 314.265, 232.704 320.866, 227.454 328.542 L 217.907 342.500 179.704 343.018 L 141.500 343.536 179.735 343.768 L 217.970 344 209.485 360.442 C 201.366 376.176, 199.430 382, 202.322 382 C 204.664 382, 234.184 360.558, 248.723 348.297 L 253.946 343.892 270.052 343.892 L 286.159 343.892 290.587 347.974 C 297.715 354.544, 302.299 355.486, 309.702 351.902 C 312.302 350.643, 315.728 347.635, 318.268 344.380 C 322.962 338.363, 323.910 338.207, 332.500 342.028 C 338.821 344.840, 354.057 348.134, 361.601 348.320 C 367.908 348.476, 368.906 348.209, 373.235 345.207 C 378.959 341.239, 380 339.465, 380 333.683 L 380 329.235 387.396 331.752 C 392.322 333.428, 395.705 334.040, 397.524 333.583 C 401.714 332.532, 405.850 327.788, 406.586 323.190 L 407.229 319.169 410.864 320.456 C 412.864 321.164, 419 323.861, 424.500 326.450 C 453.049 339.889, 467.671 344.013, 487.047 344.090 C 501.533 344.147, 511.695 341.820, 529.118 334.454 L 541.736 329.119 581.618 328.480 C 603.553 328.129, 622.063 327.667, 622.750 327.452 C 623.733 327.146, 624 313.489, 624 263.567 C 624 189.650, 625.608 197.539, 610.746 198.563 C 597.867 199.451, 572.558 197.390, 561 194.511 C 549.793 191.720, 537.526 186.713, 527.626 180.888 C 523.707 178.582, 508.350 168.500, 493.500 158.485 C 451.344 130.055, 443.709 124.937, 442.177 124.079 C 440.869 123.347, 460.742 98.136, 497.023 54.500 C 500.682 50.100, 507.624 41.596, 512.450 35.602 L 521.226 24.704 520.753 19.777 C 520.226 14.293, 517.951 10.613, 513.010 7.250 C 509.171 4.637, 501.992 4.269, 497.934 6.475 M 372 113.372 C 366.225 115.767, 353.361 121.569, 343.414 126.267 C 333.466 130.964, 317.941 138.039, 308.914 141.989 C 260.854 163.015, 260.315 163.496, 254.008 191 C 252.810 196.225, 249.623 209.500, 246.925 220.500 C 243.243 235.518, 241.648 244.486, 240.524 256.500 C 239.700 265.300, 237.908 277, 236.540 282.500 C 235.172 288, 234.041 294.597, 234.026 297.161 C 234.004 301.155, 234.441 302.193, 237.077 304.411 C 238.769 305.835, 240.681 306.971, 241.327 306.936 C 241.972 306.901, 244.188 304.845, 246.250 302.368 C 249.331 298.667, 250 297.079, 250 293.469 C 250 287.396, 253.358 278.996, 257.248 275.339 C 259.036 273.658, 263.148 270.359, 266.384 268.010 L 272.268 263.739 271.713 257.111 C 271.407 253.466, 270.410 248.463, 269.497 245.992 C 266.686 238.390, 266.611 237.278, 268.828 236.092 C 271.967 234.412, 273.764 235.743, 275.829 241.279 L 277.729 246.371 281.766 237.872 C 290.522 219.443, 292.756 203.889, 288.601 190.282 C 287.050 185.202, 286.935 183.783, 287.974 182.532 C 289.511 180.679, 292.375 180.540, 293.788 182.250 C 295.060 183.789, 297.603 193.722, 298.493 200.626 L 299.154 205.753 302.827 204.918 C 309.054 203.504, 318.022 200.148, 321.851 197.801 C 330.376 192.574, 335.027 186.918, 341.623 173.755 C 347.807 161.413, 348.851 160.238, 352.418 161.607 C 354.682 162.476, 354.404 164.246, 350.900 171.279 C 347.172 178.759, 347.629 178.337, 362.673 160.396 C 369.178 152.639, 381.186 138.549, 389.357 129.086 C 397.528 119.623, 404.053 111.749, 403.857 111.588 C 402.609 110.564, 393.187 109.001, 388.307 109.009 C 383.742 109.016, 380.255 109.949, 372 113.372 M 415.860 154.750 C 405.172 168.363, 393.531 183.269, 389.991 187.877 L 383.554 196.253 383.027 209.128 C 382.709 216.903, 382.874 222.002, 383.443 222.001 C 386.146 221.997, 398.516 206.581, 404.203 196.130 C 405.432 193.873, 406.626 193, 408.485 193 C 409.903 193, 411.305 193.631, 411.601 194.403 C 412.266 196.137, 408.935 202.864, 404.124 209.500 C 400.637 214.311, 400.609 214.415, 403.385 212.250 C 406.756 209.621, 409.247 209.388, 411.030 211.536 C 415.067 216.401, 388.489 231.794, 363.910 238.826 C 358.185 240.464, 346.075 243.703, 337 246.023 C 303.150 254.676, 288.150 260.918, 271.306 273.354 C 259.206 282.289, 257.627 284.727, 257.585 294.533 C 257.560 300.464, 257.994 302.315, 260.357 306.346 C 265.686 315.440, 270.845 316.514, 294.542 313.458 C 306.718 311.888, 310.418 311.013, 343 302.003 C 366.204 295.586, 383.003 293.011, 401.688 293.005 C 421.178 292.998, 425.172 294, 451.429 305.476 C 466.742 312.169, 482.688 316.495, 497.644 318.011 C 503.615 318.617, 508.876 319.485, 509.335 319.941 C 509.794 320.397, 510.019 321.834, 509.835 323.135 C 509.532 325.275, 508.929 325.533, 503.500 325.848 C 500.200 326.039, 493.900 325.651, 489.500 324.986 C 474.196 322.672, 466.625 320.212, 438 308.258 C 425.432 303.010, 417.487 301.033, 406 300.297 L 396.500 299.688 399.550 302.264 C 401.227 303.681, 403.416 306.357, 404.414 308.211 C 405.885 310.942, 407.150 311.800, 411.086 312.735 C 413.757 313.369, 422.142 316.673, 429.721 320.076 C 458.026 332.786, 470.591 336.319, 487.500 336.323 C 493 336.325, 500.715 335.612, 504.644 334.739 C 512.117 333.079, 513.171 332.677, 548.244 318.119 C 572.320 308.125, 575.967 307.050, 577.897 309.376 C 579.691 311.538, 578.395 314.656, 575.209 315.840 C 573.719 316.394, 570.025 317.765, 567 318.888 L 561.500 320.928 569.089 320.964 C 573.263 320.984, 585.526 320.704, 596.339 320.342 L 616 319.683 616 262.959 L 616 206.236 593.250 205.713 C 550.869 204.739, 545.081 202.352, 480.686 159.296 C 456.588 143.183, 436.516 130, 436.081 130 C 435.646 130, 426.547 141.137, 415.860 154.750 M 319.500 207.277 C 317.300 208.409, 311.675 210.312, 307 211.505 L 298.500 213.674 296.866 219.587 C 294.457 228.303, 291.515 235.285, 285.434 246.715 C 282.446 252.333, 280 257.249, 280 257.639 C 280 259.348, 286.394 252.037, 302.860 231.501 C 312.562 219.401, 321.320 208.488, 322.323 207.251 C 323.325 206.013, 324 205.049, 323.823 205.109 C 323.645 205.169, 321.700 206.144, 319.500 207.277 M 371.590 210.139 C 369.480 212.965, 364.204 219.500, 359.865 224.661 C 351.003 235.201, 350.567 234.818, 366 230.056 L 374.500 227.433 375 216.214 C 375.275 210.044, 375.484 204.997, 375.463 204.998 C 375.443 204.999, 373.700 207.313, 371.590 210.139 M 278.611 274.114 C 272.314 275.592, 265.287 279.978, 262.292 284.301 C 259.941 287.693, 259.511 289.306, 259.571 294.516 C 259.735 308.836, 269.498 314.908, 285.500 310.644 C 296.044 307.834, 300.951 303.613, 301.733 296.681 C 302.691 288.174, 297.695 278.483, 290.573 275.035 C 286.024 272.833, 284.550 272.720, 278.611 274.114 M 276.759 282.423 C 270.823 284.542, 268.266 286.663, 266.990 290.530 C 264.679 297.534, 268.560 305, 274.512 305 C 279.506 305, 290.932 301.733, 292.675 299.806 C 296.227 295.882, 293.315 283.486, 288.398 281.599 C 285.870 280.629, 280.775 280.990, 276.759 282.423 M 371 302.987 C 369.075 303.420, 365.749 304.082, 363.609 304.459 L 359.718 305.143 363.609 308.310 C 365.749 310.052, 369.525 313.330, 372 315.594 C 375.517 318.812, 377.554 319.850, 381.327 320.347 C 383.982 320.697, 388.847 322.070, 392.137 323.399 L 398.120 325.816 399.060 323.343 C 401.381 317.239, 398.322 309.693, 391.672 305.118 C 387.707 302.391, 386.348 302.013, 380.820 302.100 C 377.344 302.156, 372.925 302.555, 371 302.987 M 340 310.654 C 335.325 312.036, 328.779 313.868, 325.453 314.726 L 319.407 316.286 321.214 321.640 C 322.209 324.585, 323.118 328.153, 323.235 329.571 C 323.471 332.419, 324.218 332.424, 331.500 329.625 C 341.478 325.790, 354.145 328.538, 362.753 336.405 L 368.241 341.421 370.621 338.655 C 375.023 333.537, 373.062 326.888, 364.819 318.990 C 360.400 314.755, 350.261 307.811, 348.878 308.071 C 348.670 308.111, 344.675 309.273, 340 310.654 M 308.761 319.049 C 305.795 319.885, 292.615 321.598, 281.660 322.571 L 274.819 323.179 277.084 325.589 C 278.607 327.211, 280.450 328, 282.714 328 C 290.086 328, 298.825 334.923, 301.711 343.049 C 303.198 347.235, 303.772 347.890, 305.482 347.349 C 309.382 346.117, 311.921 343.794, 313.951 339.601 C 316.554 334.224, 316.468 328.745, 313.689 322.888 C 311.664 318.621, 311.295 318.334, 308.761 319.049 M 262.500 336.513 L 255.500 342.946 270 342.930 L 284.500 342.914 277.636 336.457 C 273.861 332.906, 270.486 330.018, 270.136 330.039 C 269.786 330.061, 266.350 332.974, 262.500 336.513 M 336.500 335.702 C 338.303 337.433, 358.439 342.519, 357.505 341.008 C 357.241 340.581, 354.982 339.272, 352.485 338.098 C 347.793 335.893, 334.645 333.922, 336.500 335.702 M 290.958 340.250 C 295.102 344.665, 296 345.459, 296 344.708 C 296 344.548, 293.863 342.410, 291.250 339.958 L 286.500 335.500 290.958 340.250 M 323.768 343.725 C 325.565 343.947, 328.265 343.943, 329.768 343.715 C 331.271 343.486, 329.800 343.304, 326.500 343.310 C 323.200 343.315, 321.971 343.502, 323.768 343.725 M 396.750 343.749 C 407.338 343.911, 424.663 343.911, 435.250 343.749 C 445.838 343.587, 437.175 343.454, 416 343.454 C 394.825 343.454, 386.163 343.587, 396.750 343.749" stroke="none" fill="#111211" fill-rule="evenodd"/><path d="M 315.267 347.674 C 307.623 355.600, 299.410 355.871, 291.176 348.468 L 286.206 344 270.013 344 L 253.819 344 248.659 348.351 C 234.165 360.572, 204.658 382, 202.322 382 C 199.430 382, 201.366 376.176, 209.485 360.442 L 217.970 344 179.430 344 L 140.890 344 123.695 354.361 C 103.609 366.465, 53.506 396.848, 27 412.999 C 16.825 419.199, 8.073 424.661, 7.550 425.136 C 7.016 425.622, 90.203 425.980, 197.550 425.954 L 388.500 425.908 394.192 418.704 C 397.322 414.742, 412.274 396.425, 427.419 378 C 442.563 359.575, 454.964 344.275, 454.977 344 C 454.990 343.725, 436.971 343.602, 414.936 343.728 C 375.047 343.954, 374.857 343.965, 371.686 346.228 C 369.004 348.141, 367.375 348.469, 361.382 348.305 C 357.467 348.198, 350.596 347.174, 346.115 346.029 C 341.359 344.815, 334.078 343.855, 328.629 343.724 L 319.291 343.500 315.267 347.674" stroke="none" fill="#59aa51" fill-rule="evenodd"/></svg>