<svg width="953" height="241" viewBox="0 0 953 241" fill="none" xmlns="http://www.w3.org/2000/svg">
<path d="M603.423 20.7111C634.665 2.48472 665.819 2.78455 696.023 21.375C714.973 33.039 723.929 52.2403 728.414 73.4247C731.853 89.6721 732.599 106.176 729.715 122.588C724.519 152.163 709.43 174.592 680.896 186.065C670.896 190.085 664.511 196.998 660.786 206.303C657.025 215.697 654.618 225.633 651.603 235.326C651.091 236.972 650.502 238.594 649.949 240.227C649.448 240.274 648.947 240.322 648.447 240.369C647.68 238.55 646.775 236.776 646.17 234.906C643.098 225.406 640.397 215.775 637 206.395C633.661 197.177 627.351 191.011 617.696 187.638C585.287 176.314 570.739 151.212 566.261 118.886C563.999 102.552 564.934 86.3001 568.956 70.2797C574.159 49.5586 585.354 32.9538 603.423 20.7111ZM684.834 156.464C686.17 152.175 687.855 147.96 688.787 143.584C695.2 113.472 693.162 83.6329 685.32 54.0736C682.674 44.1012 677.779 35.2564 670.738 27.6274C656.472 12.1723 631.85 13.4512 620.132 30.8703C616.025 36.9747 612.791 44.0698 610.881 51.1755C604.117 76.341 604.257 101.894 608.419 127.493C610.582 140.791 614.661 153.347 622.402 164.585C636.326 184.799 663.77 185.494 677.263 168.433C680.022 164.944 682.115 160.928 684.834 156.464Z" fill="#010101"/>
<path d="M313.853 193.746C313.751 202.173 313.546 210.173 313.735 218.164C313.978 228.498 317.533 232.856 327.245 235.972C328.876 236.496 330.196 237.989 331.66 239.034C329.913 239.675 328.171 240.857 326.419 240.871C309.258 241.013 292.095 241.004 274.934 240.888C273.306 240.877 271.686 239.845 270.063 239.287C271.171 238.022 272.059 236.402 273.426 235.552C279.156 231.992 282.003 227.112 281.988 220.248C281.9 179.593 281.949 138.937 281.942 98.2811C281.941 90.8399 280.591 84.2281 272.05 81.8438C271.139 81.5895 269.729 79.9837 269.899 79.5995C270.363 78.5468 271.412 77.5248 272.48 77.0233C273.8 76.403 275.362 76.2548 276.838 76.0138C287.192 74.3225 297.568 72.7618 307.898 70.936C311.802 70.2459 313.422 71.4601 313.671 75.4334C314.24 84.5186 314.101 84.0718 322.199 79.517C328.784 75.8137 335.791 72.095 343.072 70.5434C363.028 66.2902 379.683 74.5004 387.503 93.2968C398.014 118.563 397.635 143.892 381.902 167.237C371.502 182.669 356.278 190.697 337.485 191.162C331.341 191.314 325.177 190.608 319.031 190.743C317.311 190.781 315.626 192.414 313.853 193.746ZM361.481 125.188C361.197 123.208 360.999 121.212 360.615 119.253C358.737 109.664 356.011 100.484 348.749 93.3189C340.555 85.2343 327.711 83.8262 318.571 90.7725C316.076 92.6681 313.437 96.2938 313.382 99.1735C312.966 120.994 312.925 142.831 313.309 164.653C313.473 173.991 318.741 179.659 327.68 182.234C341.693 186.269 352.856 179.841 357.945 165.164C362.371 152.401 362.085 139.28 361.481 125.188Z" fill="#010101"/>
<path d="M97.7107 141.161C97.7325 148.991 97.6183 156.324 97.8135 163.649C98.1187 175.101 102.415 180.543 113.287 184.189C114.903 184.731 116.178 186.287 117.612 187.374C115.847 187.961 114.086 189.049 112.319 189.058C89.9971 189.171 67.6748 189.13 45.3526 189.121C44.3545 189.12 43.2945 189.239 42.3767 188.947C41.5352 188.679 40.8473 187.929 40.0918 187.391C40.6343 186.662 41.0427 185.731 41.755 185.257C42.5529 184.725 43.6198 184.585 44.5802 184.311C55.3996 181.229 59.7404 175.886 59.9165 164.546C60.1233 151.222 59.9899 137.893 59.9911 124.566C59.9939 93.5815 60.0033 62.5965 59.9771 31.6115C59.9704 23.6874 59.0486 22.8818 51.3284 23.5459C50.1667 23.6459 48.985 23.9282 47.8457 23.8092C32.884 22.246 23.1477 29.1014 16.9281 42.3352C13.5332 49.5588 9.51178 56.4974 5.55328 63.4393C4.69561 64.9434 2.89699 65.911 1.53176 67.1256C0.993662 65.3275 -0.129868 63.4816 0.0123319 61.7389C0.946308 50.2937 2.15241 38.8707 3.27477 27.4408C3.32354 26.9442 3.46591 26.4546 3.49061 25.9581C4.14172 12.867 4.16621 14.0948 17.2191 14.0855C59.8436 14.055 102.468 14.0675 145.093 14.0784C153.206 14.0804 153.323 14.3608 153.893 22.4489C154.84 35.8978 156.039 49.329 156.953 62.7799C157.058 64.3242 156.018 65.9462 155.51 67.5322C154.144 66.4997 152.266 65.7554 151.498 64.3876C146.854 56.1131 142.463 47.6969 137.99 39.3266C132.579 29.2008 124.479 23.5017 112.655 23.9224C112.323 23.9342 111.987 23.9103 111.657 23.8696C95.0012 21.8136 97.764 24.4635 97.7277 36.7121C97.6248 71.3615 97.7052 106.011 97.7107 141.161Z" fill="#010101"/>
<path d="M870.193 143.557C864.753 157.229 859.456 170.544 854.151 183.855C853.72 184.938 853.432 186.161 852.724 187.031C851.632 188.373 850.027 190.59 849.015 190.403C847.479 190.119 845.635 188.343 845.011 186.769C838.931 171.439 833.081 156.017 827.159 140.625C825.338 135.892 823.497 131.166 821.665 126.438C821.195 126.447 820.725 126.456 820.255 126.466C819.414 128.159 818.482 129.813 817.746 131.551C809.951 149.965 802.166 168.383 794.434 186.824C793.101 190.003 791.31 192.124 787.466 192.134C783.553 192.145 781.925 189.9 780.66 186.7C768.781 156.635 756.809 126.607 744.952 96.5329C742.123 89.3582 739.469 82.1883 732.638 77.5984C731.756 77.0058 730.905 74.5983 731.179 74.3635C732.31 73.3957 733.872 72.4059 735.29 72.3838C746.621 72.2071 757.954 72.2403 769.287 72.2284C774.453 72.223 779.624 72.1471 784.782 72.361C786.042 72.4132 787.26 73.48 788.498 74.0803C787.752 75.0591 787.196 76.3237 786.229 76.9714C778.871 81.895 777.615 83.9194 780.273 92.2269C785.853 109.668 791.971 126.937 797.896 144.268C798.039 144.687 798.504 144.996 798.797 145.331C799.202 145.232 799.708 145.248 799.79 145.069C805.041 133.568 810.316 122.076 815.403 110.503C816.021 109.096 816.179 106.993 815.587 105.629C811.349 95.8571 810.699 84.2672 801.294 77.0474C800.536 76.4657 799.756 74.6528 800.086 74.1835C800.724 73.2739 802.14 72.4134 803.243 72.4026C815.74 72.2798 828.239 72.2334 840.736 72.3755C844.333 72.4164 844.684 74.5073 842.445 76.9078C839.54 80.0205 839.496 83.4731 840.798 87.1446C846.478 103.163 852.187 119.17 857.939 135.163C858.296 136.155 859.108 136.983 860.263 138.723C861.32 136.354 862.122 134.803 862.719 133.177C866.165 123.797 869.857 114.491 872.847 104.966C874.266 100.445 874.5 95.5112 874.933 90.7339C875.453 84.9994 873.369 80.3097 868.537 76.9276C867.535 76.2266 866.801 75.1435 865.102 73.3463C867.644 72.8432 869.123 72.3092 870.606 72.2962C879.938 72.2143 889.273 72.1566 898.603 72.323C900.419 72.3553 902.217 73.4084 904.023 73.9907C903.118 75.6127 902.582 77.6812 901.248 78.7832C893.269 85.3735 889.936 94.7283 886.166 103.765C880.714 116.836 875.595 130.047 870.193 143.557Z" fill="#010101"/>
<path d="M146.362 117.758C151.746 92.8588 166.287 76.7879 190.713 71.038C218.309 64.5418 242.724 74.9206 255.589 97.6622C270.149 123.4 266.589 169.833 229.79 186.627C193.83 203.039 153.143 183.573 146.623 145.964C145.06 136.95 146.307 127.45 146.362 117.758ZM225.846 169.559C233.328 142.067 231.776 115.298 219.192 89.5036C217.989 87.0373 215.952 84.8534 213.926 82.9351C206.792 76.1794 196.238 76.1634 189.958 83.7013C186.471 87.8874 183.917 93.2682 182.321 98.5289C178.512 111.089 178.26 124.154 179.302 137.132C180.29 149.434 182.216 161.631 188.883 172.449C193.57 180.054 200.322 183.799 209.358 183.227C217.812 182.692 222.28 177.237 225.846 169.559Z" fill="#010101"/>
<path d="M903.211 6.61464C913.922 4.54747 924.214 2.52473 934.525 0.595473C941.939 -0.792009 942.651 -0.211229 942.657 7.33098C942.693 55.6223 942.665 103.914 942.749 152.205C942.76 158.685 943.17 165.17 943.599 171.64C943.923 176.517 945.896 180.553 950.124 183.437C951.325 184.257 951.909 185.982 952.776 187.293C951.348 187.889 949.925 188.991 948.492 189.003C933.506 189.131 918.519 189.147 903.534 188.993C902.001 188.977 900.48 187.654 898.954 186.937C899.973 185.771 900.789 184.283 902.045 183.492C908.124 179.659 909.837 173.703 909.944 167.159C910.135 155.505 910.018 143.847 910.019 132.19C910.023 99.7185 910.128 67.2459 909.899 34.7757C909.867 30.2552 909.206 25.1185 906.947 21.4203C904.955 18.1577 900.33 16.4973 896.855 14.1484C895.464 13.2081 894.039 12.3186 892.629 11.4059C894.076 10.2985 895.389 8.89494 897.005 8.16298C898.792 7.35411 900.858 7.16057 903.211 6.61464Z" fill="#010101"/>
<path d="M554.724 100.739C550.761 104.645 547.183 108.515 543.023 111.603C540.208 113.692 537.715 112.525 536.852 108.733C535.928 104.676 535.1 100.541 533.597 96.6875C531.978 92.5383 530.122 88.3053 527.488 84.7647C521.778 77.0892 511.917 76.0317 504.569 82.1316C501.941 84.3135 499.208 87.0306 497.946 90.0903C489.796 109.835 488.052 129.918 498.013 149.504C508.965 171.037 536.242 175.865 554.614 160.094C555.92 158.973 557.378 158.029 558.765 157.002C559.274 157.258 559.784 157.513 560.293 157.769C559.699 160.304 559.485 163.007 558.45 165.346C551.041 182.077 531.804 193.19 512.855 191.876C482.888 189.8 463.484 169.361 461.837 139.301C460.868 121.634 464.092 105.508 474.911 91.2824C490.87 70.2991 516.84 65.422 538.702 72.0232C552.431 76.1686 557.745 86.2845 554.724 100.739Z" fill="#010101"/>
<path d="M443.618 156.155C443.79 161.473 443.774 166.308 444.187 171.106C444.653 176.517 446.813 180.973 452.019 183.63C453.21 184.238 453.777 186.067 454.631 187.334C453.348 187.912 452.069 188.981 450.781 188.991C434.965 189.12 419.146 189.127 403.329 189.039C402.191 189.032 401.058 188.042 399.922 187.509C400.69 186.387 401.214 184.668 402.265 184.238C409.415 181.311 411.602 175.216 411.68 168.505C411.951 145.033 411.931 121.554 411.721 98.0802C411.657 90.9857 409.716 84.4871 401.899 81.7001C401.002 81.3805 400.448 80.0993 399.735 79.264C400.973 78.3272 402.104 76.7955 403.466 76.5503C412.307 74.9594 421.199 73.648 430.074 72.246C432.54 71.8566 435.037 71.6071 437.464 71.0525C441.917 70.0352 443.613 71.905 443.596 76.2316C443.546 88.886 443.614 101.541 443.622 114.195C443.63 128.016 443.621 141.836 443.618 156.155Z" fill="#010101"/>
<path d="M407.68 33.3592C406.503 21.8422 411.642 14.0921 422.075 11.1332C429.866 8.92366 439.994 13.5883 443.497 20.9993C448.3 31.1594 443.686 43.3062 433.346 46.9238C422.471 50.7283 410.085 46.0978 407.68 33.3592Z" fill="#010101"/>
</svg>
