<svg width="759" height="145" viewBox="0 0 759 145" fill="none" xmlns="http://www.w3.org/2000/svg">
<path d="M582.354 116.504C569.261 116.505 556.595 116.505 543.476 116.505C543.391 114.574 543.255 112.915 543.255 111.256C543.237 78.6318 543.238 46.0074 543.226 13.3829C543.223 6.08972 546.536 1.21275 552.21 0.237025C559.518 -1.01992 566.29 2.81081 568.403 9.62761C569.024 11.6283 569.214 13.8242 569.242 15.9354C569.339 23.3303 569.279 30.7273 569.279 38.1361C573.879 36.785 578.214 35.0312 582.717 34.2737C600.153 31.3403 617.452 40.7769 625.837 57.4547C633.155 72.0089 629.582 91.6373 617.665 103.611C607.983 113.34 596.218 117.103 582.354 116.504ZM569.765 66.8194C568.641 67.3968 567.382 67.8052 566.418 68.5814C562.551 71.697 561.818 76.3044 564.411 80.3546C566.783 84.0592 571.413 85.4108 575.7 83.6503C579.504 82.0882 581.573 77.2647 580.328 72.8646C579.149 68.7006 576.059 66.7802 569.765 66.8194ZM599.185 83.9712C603.901 85.1065 607.631 83.6217 609.675 79.7946C611.467 76.4401 610.777 71.7711 608.146 69.1277C605.537 66.5056 602.322 65.9908 599.079 67.1604C595.842 68.3275 593.761 70.783 593.399 74.456C592.971 78.7952 594.608 81.9106 599.185 83.9712Z" fill="#FE6E1B"/>
<path d="M378.441 57.3819C382.564 64.4349 384.4 71.7277 384.285 79.6233C384.235 83.023 383.005 84.0244 379.725 84.0024C362.491 83.8867 345.255 83.9515 328.02 83.9537C326.475 83.9538 324.929 83.9537 323.382 83.9537C323.465 92.208 331.145 100.324 339.376 102.651C348.667 105.277 362.697 103.555 369.866 91.5362C373.478 93.6104 377.1 95.6893 381.102 97.9872C375.238 107.292 367.584 113.252 357.125 115.404C346.031 117.687 335.314 116.879 325.419 110.968C315.934 105.304 310.821 96.6925 308.913 85.8932C307.238 76.4085 308.762 67.5363 313.268 59.1435C318.291 49.7895 326.251 44.1579 336.529 42.1117C347.712 39.8852 358.747 40.5193 368.428 47.2144C372.19 49.8166 375.008 53.7855 378.441 57.3819ZM334.22 72.9479C345.664 72.9479 357.109 72.9479 368.569 72.9479C368.136 61.1818 358.628 53.3129 346.023 53.1847C335.049 53.0731 325.107 61.2378 324.437 72.9477C327.423 72.9477 330.4 72.9477 334.22 72.9479Z" fill="#CBD4D9"/>
<path d="M115.395 41.1436C125.383 40.084 134.313 41.9999 142.421 47.3814C152.739 54.2292 158.442 64.1626 159.031 76.1969C160.019 96.3546 148.285 111.197 128.538 115.519C111.62 119.222 94.8572 112.702 86.5173 99.7019C78.4595 87.1414 78.2829 73.8288 85.0224 60.8222C91.2022 48.8956 101.574 42.4647 115.395 41.1436ZM136.11 98.1687C138.42 94.9844 141.467 92.1017 142.913 88.5644C149.797 71.7288 137.061 51.9314 117.697 53.9012C108.021 54.8855 101.097 59.4993 97.401 67.8843C93.3743 77.0188 93.2957 86.6821 100.322 94.7378C109.834 105.644 122.305 106.774 136.11 98.1687Z" fill="#CBD4D9"/>
<path d="M691.03 44.9115C704.679 52.3068 710.708 63.5094 711.25 78.724C711.83 94.9913 700.268 110.622 684.142 115.109C662.823 121.04 641.718 110.414 635.628 89.781C628.947 67.1482 644.38 42.8378 668.474 41.1497C676.272 40.6033 683.686 41.3013 691.03 44.9115ZM690.542 61.3202C684.264 54.3526 676.234 53.002 667.522 54.471C657.279 56.1982 648.101 66.7025 648.292 80.586C648.492 95.1646 662.708 106.973 678.63 103.151C699.754 98.0798 701.841 73.4342 690.542 61.3202Z" fill="#CBD4D9"/>
<path d="M185.776 84.0201C185.775 94.6673 185.775 104.888 185.775 115.625C181.31 115.625 177.346 115.809 173.425 115.473C172.626 115.405 171.413 113.404 171.379 112.265C171.184 105.712 171.288 99.1509 171.289 92.5927C171.29 77.48 171.29 62.3675 171.29 47.2549C171.29 45.7258 171.29 44.1967 171.29 42.3793C176.258 42.3793 180.725 42.3793 185.692 42.3793C185.692 45.2961 185.692 48.0373 185.692 51.2974C197.553 38.5616 220.105 39.0871 229.293 46.2542C235.897 51.4051 240.119 57.9449 240.377 66.0789C240.878 81.8882 240.527 97.7245 240.509 113.55C240.509 114.085 240.296 114.619 240.134 115.383C235.539 115.383 231.069 115.383 226.372 115.383C226.245 114.333 226.05 113.514 226.063 112.698C226.263 100.177 226.293 87.6494 226.774 75.139C227.165 64.9368 222.755 56.5476 214.335 54.7187C198.856 51.356 186.685 58.2724 185.805 75.4681C185.666 78.1701 185.779 80.885 185.776 84.0201Z" fill="#CBD4D9"/>
<path d="M467.094 114.474C462.709 115.21 458.428 115.563 453.537 115.966C453.537 113.627 453.537 112.11 453.537 110.593C453.538 98.0497 453.548 85.5067 453.539 72.9637C453.53 61.0124 448.213 54.2658 437.31 53.3445C426.906 52.4654 417.284 57.2589 414.443 68.2686C413.777 70.8509 413.439 73.5854 413.414 76.2541C413.307 87.6559 413.374 99.0592 413.377 110.462C413.377 111.993 413.377 113.525 413.377 115.351C408.45 115.351 403.976 115.351 399.174 115.351C399.174 91.0803 399.174 66.9377 399.174 42.4419C403.716 42.4419 408.182 42.4419 413.134 42.4419C413.134 45.4812 413.134 48.5188 413.134 52.9023C420.41 42.8057 430.029 40.8738 440.167 41.3774C453.91 42.0601 464.024 48.3697 466.831 61.974C467.088 63.2161 467.222 64.5065 467.223 65.7746C467.235 81.8806 467.212 97.9866 467.094 114.474Z" fill="#CBD4D9"/>
<path d="M69.2476 96.2113C71.9735 97.5221 72.4807 98.8183 70.7221 101.306C65.1315 109.213 57.2898 113.504 48.1393 115.434C35.4819 118.105 23.6116 116.336 13.1478 108.065C5.46902 101.995 1.17549 93.9739 0.257831 84.4237C-1.3549 67.6397 4.54314 53.9728 19.5018 45.6193C35.0126 36.9576 57.6382 38.9098 69.8801 55.1268C70.3794 55.7883 70.6671 56.6096 71.3132 57.8586C67.5695 60.4033 63.8931 62.9023 60.2899 65.3515C46.3527 51.1562 31.835 50.1129 20.6658 62.17C12.0878 71.4301 12.6413 89.7235 21.8079 97.507C32.2466 106.371 51.3668 106.624 61.4616 91.6788C63.9438 93.1085 66.471 94.5642 69.2476 96.2113Z" fill="#CBD4D9"/>
<path d="M277.314 78.8802C277.314 83.8681 277.306 88.4282 277.315 92.9885C277.328 99.5287 279.851 102.366 286.416 102.8C289.946 103.034 293.505 102.842 297.749 102.842C297.749 106.481 297.85 109.839 297.674 113.183C297.633 113.96 296.809 115.068 296.073 115.38C284.87 120.138 269.176 114.017 264.648 102.89C263.4 99.8229 262.907 96.2755 262.84 92.933C262.619 81.9644 262.755 70.9887 262.753 60.0157C262.753 58.4932 262.753 56.9707 262.753 54.9438C257.754 54.9438 253.267 54.9438 248.513 54.9438C248.513 50.5327 248.513 46.6294 248.513 42.2143C253.133 42.2143 257.615 42.2143 262.61 42.2143C262.61 35.2522 262.61 28.78 262.61 21.9648C267.599 21.9648 272.074 21.9648 277.09 21.9648C277.09 28.4034 277.09 34.872 277.09 41.872C284.072 41.872 290.543 41.872 297.396 41.872C297.396 46.2947 297.396 50.1985 297.396 54.6512C291.049 54.6512 284.58 54.6512 277.314 54.6512C277.314 62.9276 277.314 70.69 277.314 78.8802Z" fill="#CBD4D9"/>
<path d="M476.624 52.1569C476.62 48.7819 476.62 45.8094 476.62 42.0938C479.151 42.0938 481.359 42.0938 483.566 42.0938C485.835 42.0938 488.105 42.0938 491.177 42.0938C491.177 36.5225 491.386 31.1746 491.103 25.8529C490.919 22.3988 492.108 21.4564 495.45 21.5535C507.427 21.9016 505.477 19.983 505.646 31.7129C505.693 34.9564 505.653 38.2012 505.653 42.0989C511.293 42.0989 516.511 42.2234 521.718 42.0483C524.484 41.9554 525.605 42.8349 525.408 45.6782C525.212 48.4955 525.365 51.337 525.365 54.9231C519.87 54.9231 514.664 55.0761 509.473 54.8645C506.463 54.7418 505.552 55.7774 505.591 58.75C505.737 69.8548 506.119 80.9884 505.506 92.0611C505.004 101.127 511.02 103.175 519.73 103.403C521.367 103.446 523.017 102.985 525.314 102.666C525.314 106.521 525.416 109.891 525.237 113.245C525.196 114.013 524.257 115.305 523.617 115.38C516.033 116.272 508.354 117.584 501.267 113.272C494.315 109.044 491.309 102.543 491.204 94.6849C491.05 83.1531 491.167 71.6178 491.168 60.0839C491.168 58.5562 491.168 57.0285 491.168 54.923C487.047 54.923 483.378 55.1014 479.746 54.8146C478.654 54.7283 477.664 53.3473 476.624 52.1569Z" fill="#CBD4D9"/>
<path d="M753.446 103.125C755.329 103.008 756.859 103.008 758.949 103.008C758.949 106.34 759.113 109.442 758.854 112.508C758.771 113.491 757.763 114.861 756.845 115.234C749.076 118.389 735.384 114.903 729.708 108.519C726.355 104.748 724.645 100.425 724.683 95.312C724.772 83.6331 724.707 71.9531 724.705 60.2735C724.705 58.7285 724.705 57.1834 724.705 55.1409C719.895 55.1409 715.414 55.1409 710.533 55.1409C710.533 50.6545 710.533 46.6551 710.533 42.1529C715.129 42.1529 719.618 42.1529 724.617 42.1529C724.617 35.2047 724.617 28.737 724.617 21.9492C729.608 21.9492 734.08 21.9492 739.09 21.9492C739.09 28.4557 739.09 34.921 739.09 41.8788C745.792 41.8788 751.983 41.8788 758.563 41.8788C758.563 46.3694 758.563 50.3714 758.563 54.8857C752.248 54.8857 746.058 54.8857 739.269 54.8857C739.269 58.1637 739.269 60.9627 739.269 63.7617C739.269 72.8774 739.269 81.9932 739.267 91.109C739.266 100.448 743.593 104.246 753.446 103.125Z" fill="#CBD4D9"/>
<path d="M557.056 136.175C581.995 135.973 606.508 135.772 631.02 135.569C631.59 135.564 632.16 135.519 632.73 135.529C635.486 135.576 637.578 136.531 637.486 139.69C637.4 142.603 635.47 143.411 632.83 143.426C623.141 143.478 613.452 143.604 603.764 143.722C585.524 143.943 567.284 144.18 549.044 144.405C548.191 144.415 547.017 144.717 546.542 144.283C545.114 142.976 543.203 141.478 542.975 139.845C542.834 138.842 545.291 136.674 546.825 136.404C550.008 135.843 553.352 136.198 557.056 136.175Z" fill="#FE6E1B"/>
</svg>
